<svg width="512" height="494" viewBox="0 0 512 494" fill="none" xmlns="http://www.w3.org/2000/svg">
<path d="M227.237 60.357C225.801 59.045 224.335 57.732 222.818 56.419C193.29 30.853 141.94 0.376999 65.001 0.376999C56.717 0.376999 50.001 7.093 50.001 15.377V26.103C125.096 30.21 187.231 46.704 227.237 60.357Z" fill="#3F50B5"/>
<path d="M329.314 45.699C371.502 34.801 415.997 28.209 461.989 25.992V15.377C461.989 7.093 455.273 0.376999 446.989 0.376999C370.05 0.376999 318.701 30.853 289.173 56.419C288.384 57.102 287.612 57.785 286.845 58.468C299.039 54.248 313.222 49.856 329.314 45.699Z" fill="#3F50B5"/>
<path d="M497 55.141C366.452 55.141 280.728 91.364 256 103.315V103.606C230.878 92.392 138.146 55.141 15 55.141C6.716 55.141 0 61.857 0 70.141V428.623C0 436.907 6.716 443.623 15 443.623C149.198 443.623 247.915 491.365 249.348 492.067C251.45 493.107 253.727 493.623 255.999 493.623H256C256.329 493.623 256.658 493.611 256.987 493.589C257.093 493.582 257.199 493.568 257.305 493.559C257.528 493.54 257.751 493.519 257.973 493.49C258.098 493.473 258.223 493.451 258.348 493.431C258.549 493.399 258.75 493.366 258.95 493.326C259.084 493.299 259.217 493.267 259.35 493.237C259.54 493.194 259.729 493.149 259.917 493.098C260.054 493.061 260.19 493.02 260.326 492.979C260.509 492.924 260.69 492.866 260.871 492.804C261.008 492.757 261.145 492.707 261.281 492.656C261.458 492.59 261.633 492.519 261.808 492.446C261.945 492.389 262.081 492.33 262.217 492.268C262.389 492.19 262.558 492.107 262.728 492.021C262.861 491.954 262.994 491.888 263.126 491.817C263.176 491.79 263.227 491.767 263.277 491.739C264.144 491.258 351.681 443.623 497 443.623C505.284 443.623 512 436.907 512 428.623V70.141C512 61.856 505.284 55.141 497 55.141ZM59.503 132.832C59.503 128.618 61.275 124.598 64.387 121.756C67.498 118.914 71.656 117.513 75.859 117.893C119.417 121.847 161.166 129.962 199.944 142.014C206.217 143.964 210.492 149.769 210.492 156.338V216.338C210.492 221.106 208.225 225.589 204.387 228.417C201.779 230.338 198.654 231.338 195.492 231.338C194 231.338 192.5 231.116 191.041 230.662C154.273 219.235 114.608 211.533 73.147 207.769C65.42 207.068 59.503 200.589 59.503 192.831V132.832V132.832ZM209.817 400.79C207.819 407.219 201.893 411.342 195.497 411.342C194.022 411.342 192.523 411.123 191.041 410.662C154.273 399.235 114.608 391.533 73.147 387.769C64.897 387.02 58.815 379.725 59.564 371.475C60.313 363.224 67.614 357.14 75.858 357.892C119.416 361.846 161.165 369.961 199.943 382.013C207.856 384.473 212.276 392.879 209.817 400.79ZM209.817 340.79C207.819 347.219 201.893 351.342 195.497 351.342C194.022 351.342 192.523 351.123 191.041 350.662C154.273 339.235 114.608 331.533 73.147 327.769C64.897 327.02 58.815 319.725 59.564 311.475C60.313 303.224 67.614 297.142 75.858 297.892C119.416 301.846 161.165 309.961 199.943 322.013C207.856 324.473 212.276 332.879 209.817 340.79ZM209.817 280.79C207.819 287.219 201.893 291.342 195.497 291.342C194.022 291.342 192.523 291.123 191.041 290.662C154.273 279.235 114.608 271.533 73.147 267.769C64.897 267.02 58.815 259.725 59.564 251.475C60.313 243.224 67.614 237.136 75.858 237.892C119.416 241.846 161.165 249.961 199.943 262.013C207.856 264.473 212.276 272.879 209.817 280.79ZM438.353 387.771C396.893 391.535 357.228 399.237 320.459 410.664C318.977 411.124 317.477 411.344 316.002 411.344C309.606 411.344 303.681 407.221 301.683 400.792C299.225 392.881 303.644 384.475 311.556 382.016C350.336 369.964 392.084 361.849 435.641 357.895C443.885 357.146 451.187 363.227 451.935 371.478C452.685 379.726 446.604 387.022 438.353 387.771ZM438.353 327.771C396.893 331.535 357.228 339.237 320.459 350.664C318.977 351.124 317.477 351.344 316.002 351.344C309.606 351.344 303.681 347.221 301.683 340.792C299.225 332.881 303.644 324.475 311.556 322.016C350.336 309.964 392.084 301.849 435.641 297.895C443.885 297.142 451.187 303.227 451.935 311.478C452.685 319.726 446.604 327.022 438.353 327.771ZM438.353 267.771C396.893 271.535 357.228 279.237 320.459 290.664C318.977 291.124 317.477 291.344 316.002 291.344C309.606 291.344 303.681 287.221 301.683 280.792C299.225 272.881 303.644 264.475 311.556 262.016C350.336 249.964 392.084 241.849 435.641 237.895C443.885 237.146 451.187 243.227 451.935 251.478C452.685 259.726 446.604 267.022 438.353 267.771ZM438.353 207.77C396.893 211.534 357.228 219.236 320.459 230.663C318.977 231.123 317.477 231.343 316.002 231.343C309.606 231.343 303.681 227.22 301.683 220.791C299.225 212.88 303.644 204.474 311.556 202.015C350.336 189.963 392.084 181.848 435.641 177.894C443.885 177.14 451.187 183.225 451.935 191.477C452.685 199.726 446.604 207.021 438.353 207.77ZM438.353 147.77C396.893 151.534 357.228 159.236 320.459 170.663C318.977 171.123 317.477 171.343 316.002 171.343C309.606 171.343 303.681 167.22 301.683 160.791C299.225 152.88 303.644 144.474 311.556 142.015C350.336 129.963 392.084 121.848 435.641 117.894C443.885 117.144 451.187 123.226 451.935 131.477C452.685 139.726 446.604 147.021 438.353 147.77Z" fill="#3F50B5"/>
</svg>
